<?xml version="1.0"?>
<svg xmlns="http://www.w3.org/2000/svg" xmlns:xlink="http://www.w3.org/1999/xlink" xmlns:svgjs="http://svgjs.com/svgjs" version="1.1" width="512" height="512" x="0" y="0" viewBox="0 0 475.8 475.8" style="enable-background:new 0 0 512 512" xml:space="preserve"><g>
<g xmlns="http://www.w3.org/2000/svg">
	<g>
		<path d="M81.65,0c-34.3,0-62.2,27.9-62.2,62.2s27.9,62.2,62.2,62.2s62.2-27.9,62.2-62.2S115.85,0,81.65,0z M81.65,100.4    c-21.1,0-38.2-17.1-38.2-38.2S60.55,24,81.65,24s38.2,17.1,38.2,38.2S102.65,100.4,81.65,100.4z" fill="#ffffff" data-original="#000000" style=""/>
		<path d="M111.55,261.6c-4.1,5.2-3.3,12.7,1.9,16.9c2.2,1.8,4.8,2.6,7.5,2.6c3.5,0,7-1.5,9.4-4.5c4.1-5.2,3.3-12.7-1.9-16.9    C123.15,255.5,115.65,256.4,111.55,261.6z" fill="#ffffff" data-original="#000000" style=""/>
		<path d="M54.45,181.9c-5.9,2.9-8.4,10.1-5.5,16c2.1,4.3,6.3,6.8,10.8,6.8c1.8,0,3.5-0.4,5.3-1.2c6-2.9,8.4-10.1,5.5-16    C67.65,181.5,60.45,179,54.45,181.9z" fill="#ffffff" data-original="#000000" style=""/>
		<path d="M35.35,215.1c-6.5-1.5-12.9,2.6-14.4,9c-1.5,6.5,2.6,12.9,9,14.4c0.9,0.2,1.8,0.3,2.7,0.3c5.5,0,10.4-3.8,11.7-9.3    C45.85,223,41.75,216.6,35.35,215.1z" fill="#ffffff" data-original="#000000" style=""/>
		<path d="M34.95,259.8c-5.2,4.1-6,11.7-1.9,16.9c2.4,3,5.9,4.5,9.4,4.5c2.6,0,5.3-0.9,7.5-2.6c5.2-4.1,6-11.7,1.9-16.9    C47.65,256.5,40.05,255.7,34.95,259.8z" fill="#ffffff" data-original="#000000" style=""/>
		<path d="M130.45,238.6c0.9,0,1.8-0.1,2.7-0.3c6.5-1.5,10.5-7.9,9-14.4s-8-10.5-14.4-9c-6.4,1.5-10.5,8-9,14.4    C120.15,234.8,125.05,238.6,130.45,238.6z" fill="#ffffff" data-original="#000000" style=""/>
		<path d="M108.45,181.8c-6-2.9-13.2-0.4-16,5.6c-2.9,6-0.4,13.1,5.6,16l0,0c1.7,0.8,3.4,1.2,5.2,1.2c4.5,0,8.8-2.5,10.8-6.8    C116.95,191.9,114.45,184.7,108.45,181.8z" fill="#ffffff" data-original="#000000" style=""/>
		<path d="M81.75,276.1L81.75,276.1c-0.1,0-0.1,0-0.2,0c-3.2,0-6.3,1.3-8.5,3.5s-3.5,5.3-3.5,8.5s1.3,6.3,3.5,8.5s5.3,3.5,8.5,3.5    h0.1h0.1l0,0c6.6,0,12-5.4,12-12C93.75,281.4,88.35,276.1,81.75,276.1z" fill="#ffffff" data-original="#000000" style=""/>
		<path d="M81.65,351.4c-34.3,0-62.2,27.9-62.2,62.2s27.9,62.2,62.2,62.2s62.2-27.9,62.2-62.2S115.85,351.4,81.65,351.4z     M81.65,451.8c-21.1,0-38.2-17.1-38.2-38.2s17.1-38.2,38.2-38.2s38.2,17.1,38.2,38.2S102.65,451.8,81.65,451.8z" fill="#ffffff" data-original="#000000" style=""/>
		<path d="M205.35,71h239c6.6,0,12-5.4,12-12s-5.4-12-12-12h-239c-6.6,0-12,5.4-12,12S198.65,71,205.35,71z" fill="#ffffff" data-original="#000000" style=""/>
		<path d="M202.05,249.9c3.2,0,6.3-1.3,8.5-3.5s3.5-5.3,3.5-8.5c0-3.2-1.3-6.3-3.5-8.5s-5.3-3.5-8.5-3.5s-6.3,1.3-8.5,3.5    s-3.5,5.3-3.5,8.5c0,3.2,1.3,6.3,3.5,8.5C195.85,248.6,198.95,249.9,202.05,249.9z" fill="#ffffff" data-original="#000000" style=""/>
		<path d="M237.85,237.9c0,6.6,5.4,12,12,12s12-5.4,12-12s-5.4-12-12-12S237.85,231.3,237.85,237.9z" fill="#ffffff" data-original="#000000" style=""/>
		<path d="M285.65,237.9c0,6.6,5.4,12,12,12s12-5.4,12-12s-5.4-12-12-12S285.65,231.3,285.65,237.9z" fill="#ffffff" data-original="#000000" style=""/>
		<path d="M333.45,237.9c0,6.6,5.4,12,12,12s12-5.4,12-12s-5.4-12-12-12S333.45,231.3,333.45,237.9z" fill="#ffffff" data-original="#000000" style=""/>
		<path d="M381.25,237.9c0,6.6,5.4,12,12,12s12-5.4,12-12s-5.4-12-12-12S381.25,231.3,381.25,237.9z" fill="#ffffff" data-original="#000000" style=""/>
		<path d="M441.05,225.9c-3.2,0-6.3,1.3-8.5,3.5s-3.5,5.3-3.5,8.5c0,3.2,1.3,6.3,3.5,8.5s5.3,3.5,8.5,3.5s6.3-1.3,8.5-3.5    s3.5-5.3,3.5-8.5c0-3.2-1.3-6.3-3.5-8.5S444.25,225.9,441.05,225.9z" fill="#ffffff" data-original="#000000" style=""/>
		<path d="M441.05,401.6h-239c-6.6,0-12,5.4-12,12s5.4,12,12,12h239c6.6,0,12-5.4,12-12S447.65,401.6,441.05,401.6z" fill="#ffffff" data-original="#000000" style=""/>
	</g>
</g>
<g xmlns="http://www.w3.org/2000/svg">
</g>
<g xmlns="http://www.w3.org/2000/svg">
</g>
<g xmlns="http://www.w3.org/2000/svg">
</g>
<g xmlns="http://www.w3.org/2000/svg">
</g>
<g xmlns="http://www.w3.org/2000/svg">
</g>
<g xmlns="http://www.w3.org/2000/svg">
</g>
<g xmlns="http://www.w3.org/2000/svg">
</g>
<g xmlns="http://www.w3.org/2000/svg">
</g>
<g xmlns="http://www.w3.org/2000/svg">
</g>
<g xmlns="http://www.w3.org/2000/svg">
</g>
<g xmlns="http://www.w3.org/2000/svg">
</g>
<g xmlns="http://www.w3.org/2000/svg">
</g>
<g xmlns="http://www.w3.org/2000/svg">
</g>
<g xmlns="http://www.w3.org/2000/svg">
</g>
<g xmlns="http://www.w3.org/2000/svg">
</g>
</g></svg>
