<svg height="464pt" viewBox="0 0 464 464.0128" width="464pt" xmlns="http://www.w3.org/2000/svg"><path d="m432.925781 116.011719c-20.324219-35.292969-49.621093-64.582031-84.917969-84.894531l-58.402343 95.808593c38.53125 20.882813 62.457031 61.261719 62.265625 105.085938h112.136718c.054688-40.730469-10.667968-80.75-31.082031-116zm0 0" fill="#ab2300"/><path d="m116.007812 31.09375 56 97c36.304688-20.90625 80.886719-21.347656 117.597657-1.167969l58.402343-95.808593c-71.769531-41.480469-160.222656-41.488282-232-.023438zm0 0" fill="#ffcd00"/><path d="m351.871094 232.011719c.027344 42.84375-22.789063 82.449219-59.863282 103.921875l56 97c71.804688-41.421875 116.03125-118.027344 116-200.921875zm0 0" fill="#ff5023"/><path d="m172.007812 128.09375-56-97c-71.808593 41.417969-116.0351558 118.023438-115.9999995 200.917969h112.1328125c-.023437-42.84375 22.789063-82.449219 59.867187-103.917969zm0 0" fill="#5eac24"/><path d="m128.085938 292.011719c-10.523438-18.238281-16.023438-38.941407-15.945313-60h-112.1328125c-.0429687 82.890625 44.1874995 159.492187 115.9999995 200.898437l55.253907-97.539062c-17.917969-10.449219-32.800781-25.394532-43.175781-43.359375zm0 0" fill="#1a6fb0"/><path d="m292.007812 335.933594c-37.417968 21.550781-83.53125 21.335937-120.746093-.5625l-55.253907 97.539062c71.773438 41.472656 160.226563 41.472656 232 0zm0 0" fill="#00b6bd"/><path d="m233.75 112.023438c66.269531.964843 119.207031 55.464843 118.246094 121.730468-.960938 66.269532-55.460938 119.207032-121.730469 118.246094-66.265625-.960938-119.207031-55.460938-118.246094-121.730469.964844-66.265625 55.464844-119.207031 121.730469-118.246093zm0 0" fill="#f1f2f2"/></svg>