<?xml version="1.0" standalone="no"?>
<!DOCTYPE svg PUBLIC "-//W3C//DTD SVG 20010904//EN"
 "http://www.w3.org/TR/2001/REC-SVG-20010904/DTD/svg10.dtd">
<svg version="1.0" xmlns="http://www.w3.org/2000/svg"
 width="500.000000pt" height="500.000000pt" viewBox="0 0 500.000000 500.000000"
 preserveAspectRatio="xMidYMid meet">
<metadata>
Created by potrace 1.11, written by Peter Selinger 2001-2013
</metadata>
<g transform="translate(0.000000,500.000000) scale(0.100000,-0.100000)"
fill="#000000" stroke="none">
<path d="M2368 4685 c-2 -1 -39 -6 -83 -9 -44 -4 -91 -9 -105 -11 -14 -2 -41
-7 -60 -10 -90 -16 -225 -51 -330 -87 -113 -39 -382 -163 -388 -179 -2 -5 -8
-9 -13 -9 -15 0 -176 -111 -260 -178 -114 -92 -269 -248 -339 -341 -14 -18
-35 -45 -46 -59 -34 -43 -147 -222 -178 -281 -93 -180 -170 -399 -207 -585 -6
-28 -12 -60 -14 -71 -32 -156 -38 -508 -11 -665 3 -14 7 -43 10 -65 8 -56 24
-123 58 -244 112 -398 364 -789 677 -1051 29 -25 59 -51 66 -57 27 -26 172
-126 240 -166 271 -159 601 -268 894 -294 106 -10 360 -10 456 0 233 23 508
103 730 211 122 60 318 182 390 244 17 15 47 39 66 54 57 45 214 208 287 298
158 198 278 415 360 651 33 94 88 309 96 377 3 23 9 70 13 105 10 80 10 404 0
482 -84 642 -399 1175 -912 1541 -282 201 -633 340 -960 380 -22 2 -56 7 -75
10 -35 6 -356 14 -362 9z"/>
</g>
</svg>
