<svg height="512" viewBox="0 0 128 128" width="512" xmlns="http://www.w3.org/2000/svg"><g><path d="m120.931 8.944a9.591 9.591 0 0 0 -11.745-6.782l-89.186 23.898v16.667l102.616-27.5z" fill="#66666d"/><path d="m1.75 58.83h124.5v67.503h-124.5z" fill="#f9f9f9"/><path d="m11.75 68.83h104.5v16.503h-104.5z" fill="#ff7d47"/><path d="m20 42.731h106.25v16.099h-106.25z" fill="#66666d"/><path d="m20 58.83h-18.25v-24.782a8 8 0 0 1 8-8h10.25z" fill="#fff16b"/><g fill="#444156"><path d="m43.672 58.83h-9.627l-10.008-16.099h9.627z"/><path d="m63.307 58.83h-9.627l-10.008-16.099h9.627z"/><path d="m82.943 58.83h-9.628l-10.008-16.099h9.628z"/><path d="m102.578 58.83h-9.627l-10.008-16.099h9.627z"/><path d="m122.214 58.83h-9.628l-10.008-16.099h9.628z"/></g><g fill="#444156"><path d="m42.851 36.604-9.299 2.492-13.834-12.961 9.3-2.492z"/><path d="m61.818 31.522-9.3 2.492-13.833-12.961 9.299-2.492z"/><path d="m80.784 26.44-9.299 2.492-13.834-12.961 9.299-2.492z"/><path d="m99.75 21.358-9.299 2.492-13.834-12.961 9.3-2.492z"/><path d="m118.717 16.276-9.3 2.492-13.833-12.961 9.299-2.492z"/></g><path d="m10.875 53.345a1.75 1.75 0 0 1 -1.75-1.75v-18.312a1.75 1.75 0 0 1 3.5 0v18.317a1.75 1.75 0 0 1 -1.75 1.745z" fill="#ff7d47"/><g fill="#66666d"><g><path d="m116.25 97.091h-74.476a1.75 1.75 0 0 1 0-3.5h74.476a1.75 1.75 0 0 1 0 3.5z"/><path d="m116.25 107.1h-74.476a1.75 1.75 0 1 1 0-3.5h74.476a1.75 1.75 0 0 1 0 3.5z"/><path d="m116.25 117.107h-74.476a1.75 1.75 0 0 1 0-3.5h74.476a1.75 1.75 0 0 1 0 3.5z"/></g><path d="m11.75 95.341h20.016v20.016h-20.016z"/></g></g></svg>