<svg id="Layer_1" enable-background="new 0 0 512 512" height="512" viewBox="0 0 512 512" width="512" xmlns="http://www.w3.org/2000/svg"><g><circle cx="256" cy="256" fill="#7be492" r="256"/><path d="m256 0c-5.19 0-10.339.173-15.453.478 134.188 7.991 240.548 119.327 240.548 255.522s-106.36 247.531-240.547 255.522c5.113.305 10.262.478 15.452.478 141.385 0 256-114.615 256-256s-114.615-256-256-256z" fill="#45d987"/><g><path d="m291.397 2.431c-39.085 50.273-91.006 108.313-147.604 164.911-48.048 48.048-96.291 92.016-140.733 128.32-1.916-12.269-2.957-24.827-3.049-37.622v-.01c38.972-32.801 80.498-71.113 121.922-112.537 49.602-49.593 95.466-100.227 131.955-145.483.701-.01 1.411-.01 2.112-.01 12.012 0 23.828.824 35.397 2.431z" fill="#1eb073"/><path d="m287.314 7.65c1.375-1.748 2.738-3.489 4.083-5.219-11.569-1.607-23.385-2.431-35.397-2.431-.701 0-1.411 0-2.112.01-.395.49-.808.99-1.205 1.482 11.804 1.266 23.363 3.344 34.631 6.158z" fill="#199461"/><path d="m512 255.289c-36.932 45.75-82.868 96.425-133.357 146.914-40.187 40.187-80.416 77.439-118.45 109.756-1.391.031-2.792.041-4.193.041-13.743 0-27.238-1.082-40.393-3.173 44.37-36.036 92.768-80.066 141.176-128.474 59.421-59.41 112.31-118.924 151.169-169.959 2.616 14.577 4.007 29.576 4.048 44.895z" fill="#1eb073"/><g><path d="m480.833 244.623c.165 3.773.261 7.563.261 11.377 0 13.563-1.072 26.874-3.104 39.866 12.003-13.848 23.389-27.421 34.009-40.576-.041-15.319-1.432-30.318-4.049-44.895-8.406 11.04-17.472 22.48-27.117 34.228z" fill="#199461"/><path d="m263.541 509.097c-7.563 1.139-15.229 1.963-22.994 2.425 2.446.146 4.901.259 7.363.34.299.009.597.018.896.026.951.028 1.904.051 2.857.069 1.443.024 2.887.043 4.336.043 1.401 0 2.802-.01 4.193-.041 1.113-.945 2.233-1.909 3.349-2.862z" fill="#ffa000"/></g><path d="m445.986 84.403c-43.618 54.291-98.485 114.937-158.092 174.544-72.576 72.587-145.688 137.22-207.242 183.568-7.551-7.098-14.68-14.659-21.325-22.633 60.884-45.534 133.965-110.034 206.716-182.785 59.73-59.74 114.566-120.428 157.762-174.43 7.82 6.788 15.227 14.051 22.181 21.736z" fill="#1eb073"/><path d="m423.806 62.666c-4.381 5.477-8.888 11.026-13.501 16.633 7.227 7.571 13.997 15.582 20.26 23.993 5.279-6.371 10.427-12.674 15.421-18.889-6.954-7.685-14.361-14.948-22.18-21.737z" fill="#199461"/></g></g></svg>