<?xml version="1.0" standalone="no"?>
<!DOCTYPE svg PUBLIC "-//W3C//DTD SVG 20010904//EN"
 "http://www.w3.org/TR/2001/REC-SVG-20010904/DTD/svg10.dtd">
<svg version="1.0" xmlns="http://www.w3.org/2000/svg"
 width="500.000000pt" height="500.000000pt" viewBox="0 0 500.000000 500.000000"
 preserveAspectRatio="xMidYMid meet">
<metadata>
Created by potrace 1.11, written by Peter Selinger 2001-2013
</metadata>
<g transform="translate(0.000000,500.000000) scale(0.100000,-0.100000)"
fill="#000000" stroke="none">
<path d="M3330 3232 l-255 -46 -65 -70 c-36 -39 -208 -223 -383 -410 -175
-186 -317 -340 -315 -342 2 -2 147 21 322 51 175 30 321 55 325 55 7 0 735
776 739 789 4 11 -35 21 -78 20 -19 -1 -150 -22 -290 -47z"/>
<path d="M2065 3012 l-320 -57 -225 -241 c-213 -228 -228 -243 -285 -264 -183
-68 -236 -288 -101 -422 21 -20 51 -42 67 -49 l30 -12 -7 -547 -7 -547 58 -43
c259 -192 567 -319 905 -375 135 -22 402 -30 535 -16 442 48 872 242 1185 535
l50 47 0 639 0 640 -997 0 -998 0 -148 -26 c-81 -15 -151 -24 -154 -21 -3 3
164 186 371 406 207 220 376 403 376 406 0 6 41 13 -335 -53z m1535 -1312 l0
-90 -165 0 c-103 0 -165 -4 -165 -10 0 -5 0 -113 0 -240 0 -126 0 -234 0 -240
0 -6 62 -10 165 -10 l165 0 0 -85 0 -85 -1015 0 -1015 0 0 85 0 85 168 2 167
3 0 245 0 245 -167 3 -168 2 0 90 0 90 1015 0 1015 0 0 -90z"/>
<path d="M2080 1367 l0 -257 505 0 505 0 0 250 0 250 -128 0 c-71 0 -298 3
-505 7 l-377 6 0 -256z"/>
</g>
</svg>
